Coordinates
version=1
nRows=11
nColumns=63
inDegrees=yes

Units are S.I. units (second, meters, Newtons, ...)
If the header above contains a line with 'inDegrees', this indicates whether rotational values are in degrees (yes) or radians (no).

endheader
time	pelvis_tilt	pelvis_list	pelvis_rotation	pelvis_tx	pelvis_ty	pelvis_tz	hip_flexion_r	hip_adduction_r	hip_rotation_r	knee_angle_r	knee_angle_r_beta	ankle_angle_r	subtalar_angle_r	mtp_angle_r	hip_flexion_l	hip_adduction_l	hip_rotation_l	knee_angle_l	knee_angle_l_beta	ankle_angle_l	subtalar_angle_l	mtp_angle_l	L5_S1_Flex_Ext	L5_S1_Lat_Bending	L5_S1_axial_rotation	L4_L5_Flex_Ext	L4_L5_Lat_Bending	L4_L5_axial_rotation	L3_L4_Flex_Ext	L3_L4_Lat_Bending	L3_L4_axial_rotation	L2_L3_Flex_Ext	L2_L3_Lat_Bending	L2_L3_axial_rotation	L1_L2_Flex_Ext	L1_L2_Lat_Bending	L1_L2_axial_rotation	L1_T12_Flex_Ext	L1_T12_Lat_Bending	L1_T12_axial_rotation	Abs_r3	Abs_r2	Abs_r1	Abs_t1	Abs_t2	neck_flexion	neck_bending	neck_rotation	arm_flex_r	arm_add_r	arm_rot_r	elbow_flex_r	pro_sup_r	wrist_flex_r	wrist_dev_r	arm_flex_l	arm_add_l	arm_rot_l	elbow_flex_l	pro_sup_l	wrist_flex_l	wrist_dev_l
1.694915	0.420152	-6.749986	88.618091	0.158580	0.956522	0.537027	6.886366	0.954457	-6.127197	18.214408	0.317901	26.547688	0.719994	0.000000	3.983559	-1.322980	-4.475765	10.150878	0.177166	25.516811	7.390566	0.000000	-0.109595	0.157847	0.155688	-0.203529	0.209936	0.165418	-0.180054	0.383788	0.165418	-0.125256	0.383788	0.136227	-0.101770	0.321881	0.126496	-0.062623	0.244504	0.116766	-0.782826	1.785592	0.865890	0.000000	0.000000	20.593991	-3.134600	-4.605502	-6.485186	-13.580599	16.706877	32.367084	86.746972	5.047438	1.226671	-4.043024	-10.932140	17.425083	32.622510	86.735918	-9.741864	-5.198197
1.711864	0.458123	-6.741676	88.652273	0.158546	0.956568	0.537062	6.882435	0.980309	-6.183752	18.206002	0.317755	26.570515	0.809214	0.000000	3.986130	-1.383306	-4.692188	10.201222	0.178045	25.683529	7.713169	0.000000	-0.114911	0.163102	0.152116	-0.213400	0.216926	0.161624	-0.188787	0.396567	0.161624	-0.131331	0.396567	0.133102	-0.106706	0.332598	0.123595	-0.065660	0.252645	0.114087	-0.820795	1.845046	0.846026	0.000000	0.000000	20.568367	-3.084813	-4.370854	-6.444604	-13.611827	16.877213	32.292216	86.922606	4.975381	1.123730	-4.042309	-10.886808	17.325364	32.751096	86.761299	-9.860357	-4.683042
1.728814	0.472170	-6.723749	88.671362	0.158584	0.956601	0.537112	6.882004	0.990954	-6.186019	18.210736	0.317837	26.596895	0.835903	0.000000	3.973813	-1.420667	-4.922388	10.242989	0.178774	25.837232	8.014781	0.000000	-0.119880	0.164073	0.125693	-0.222629	0.218217	0.133548	-0.196951	0.398928	0.133548	-0.137011	0.398928	0.109981	-0.111321	0.334578	0.102125	-0.068499	0.254149	0.094270	-0.856292	1.856029	0.699065	0.000000	0.000000	20.556470	-2.992594	-4.122978	-6.285635	-13.649238	17.341268	32.140444	86.910210	4.875824	0.999237	-4.161825	-10.854455	17.037025	32.954344	86.798833	-10.021070	-4.305615
1.745763	0.460615	-6.703814	88.662232	0.158702	0.956607	0.537175	6.895760	0.983448	-6.133262	18.231596	0.318201	26.632890	0.820666	0.000000	3.955107	-1.434147	-5.181174	10.277161	0.179370	25.971348	8.296380	0.000000	-0.123515	0.160815	0.087611	-0.229379	0.213883	0.093086	-0.202922	0.391004	0.093086	-0.141165	0.391004	0.076659	-0.114696	0.327933	0.071184	-0.070576	0.249102	0.065708	-0.882254	1.819166	0.487265	0.000000	0.000000	20.555593	-2.877674	-3.896830	-6.082472	-13.654751	17.806444	31.968891	86.861168	4.805820	0.970436	-4.381342	-10.846280	16.611561	33.225211	86.867662	-10.182280	-4.071735
1.762712	0.430916	-6.685908	88.632649	0.158869	0.956582	0.537261	6.925423	0.962942	-6.040811	18.265301	0.318790	26.684557	0.782521	0.000000	3.938229	-1.430996	-5.466846	10.308306	0.179914	26.089169	8.568173	0.000000	-0.126188	0.154392	0.038325	-0.234343	0.205341	0.040720	-0.207314	0.375388	0.040720	-0.144220	0.375388	0.033534	-0.117178	0.314835	0.031139	-0.072104	0.239153	0.028744	-0.901347	1.746509	0.213152	0.000000	0.000000	20.572993	-2.745184	-3.690698	-5.839046	-13.634843	18.258082	31.772960	86.836080	4.782020	1.017631	-4.702712	-10.852768	16.029169	33.568703	86.968780	-10.327828	-3.965053
1.779661	0.385897	-6.658838	88.591473	0.159064	0.956549	0.537362	6.952759	0.928629	-5.932670	18.303688	0.319460	26.754222	0.734051	0.000000	3.907166	-1.412026	-5.757172	10.325418	0.180213	26.174302	8.836753	0.000000	-0.129780	0.145200	-0.017341	-0.241015	0.193116	-0.018425	-0.213216	0.353039	-0.018425	-0.148326	0.353039	-0.015173	-0.120514	0.296092	-0.014090	-0.074157	0.224915	-0.013006	-0.927009	1.642530	-0.096445	0.000000	0.000000	20.596854	-2.597922	-3.520542	-5.575893	-13.612370	18.761900	31.587377	86.656042	4.742546	1.204870	-5.084686	-10.901565	15.435446	33.969717	87.079411	-10.447925	-3.921357
1.796610	0.320040	-6.635191	88.509763	0.159310	0.956489	0.537490	7.002650	0.876641	-5.782381	18.365374	0.320536	26.857694	0.692001	0.000000	3.875382	-1.370219	-6.056223	10.330177	0.180296	26.226899	9.065113	0.000000	-0.132162	0.132965	-0.074240	-0.245438	0.176844	-0.078880	-0.217129	0.323291	-0.078880	-0.151048	0.323291	-0.064960	-0.122726	0.271142	-0.060320	-0.075517	0.205963	-0.055680	-0.944021	1.504128	-0.412901	0.000000	0.000000	20.611702	-2.438390	-3.365702	-5.284202	-13.592255	19.339048	31.383845	86.468850	4.704571	1.449937	-5.523261	-10.974389	14.828205	34.392199	87.206335	-10.607958	-3.983474
1.813559	0.239456	-6.621858	88.413674	0.159559	0.956401	0.537650	7.068742	0.805667	-5.645343	18.429345	0.321653	26.989539	0.697622	0.000000	3.859389	-1.310924	-6.343043	10.334389	0.180369	26.254912	9.273014	0.000000	-0.132426	0.118522	-0.132814	-0.245928	0.157634	-0.141115	-0.217563	0.288173	-0.141115	-0.151350	0.288173	-0.116212	-0.122971	0.241689	-0.107911	-0.075668	0.183590	-0.099610	-0.945905	1.340740	-0.738672	0.000000	0.000000	20.606315	-2.293573	-3.269769	-4.978543	-13.566857	19.934440	31.153582	86.196570	4.710697	1.744693	-6.022586	-11.044550	14.102338	34.867644	87.371342	-10.693826	-3.966891
1.830508	0.139833	-6.613906	88.278458	0.159831	0.956299	0.537855	7.154450	0.712884	-5.501123	18.509190	0.323046	27.152468	0.758446	0.000000	3.850634	-1.226864	-6.609114	10.331348	0.180316	26.259370	9.411575	0.000000	-0.131295	0.101714	-0.186599	-0.243828	0.135279	-0.198262	-0.215705	0.247306	-0.198262	-0.150057	0.247306	-0.163275	-0.121921	0.207414	-0.151612	-0.075022	0.157554	-0.139950	-0.937828	1.150605	-1.037810	0.000000	0.000000	20.565868	-2.160827	-3.221002	-4.650749	-13.552580	20.620343	30.898821	85.816017	4.733032	2.063883	-6.541013	-11.110572	13.352100	35.325183	87.551418	-10.758299	-3.982326
1.847458	0.025316	-6.610107	88.100708	0.160133	0.956186	0.538115	7.259825	0.609050	-5.314620	18.607076	0.324755	27.330599	0.821017	0.000000	3.846273	-1.119752	-6.822228	10.316039	0.180049	26.246216	9.430891	0.000000	-0.129041	0.083590	-0.226483	-0.239641	0.111175	-0.240638	-0.212001	0.203241	-0.240638	-0.147480	0.203241	-0.198173	-0.119827	0.170457	-0.184018	-0.073734	0.129481	-0.169862	-0.921723	0.945588	-1.259631	0.000000	0.000000	20.490919	-2.061563	-3.234422	-4.362120	-13.521403	21.149457	30.672390	85.449072	4.813926	2.468058	-7.005526	-11.184049	12.748688	35.696384	87.721232	-10.862707	-4.053299
1.864407	-0.101666	-6.609035	87.877224	0.160452	0.956066	0.538436	7.381971	0.492522	-5.106272	18.721993	0.326760	27.518915	0.915937	0.000000	3.843573	-0.989073	-6.958056	10.286150	0.179527	26.211947	9.289749	0.000000	-0.126179	0.064761	-0.249032	-0.234326	0.086133	-0.264597	-0.207299	0.157461	-0.264597	-0.144210	0.157461	-0.217903	-0.117169	0.132062	-0.202339	-0.072098	0.100316	-0.186774	-0.901282	0.732595	-1.385043	0.000000	0.000000	20.390913	-1.992905	-3.300167	-4.108430	-13.492624	21.583613	30.467197	85.052098	4.930890	2.881341	-7.393195	-11.248812	12.282393	35.949989	87.884476	-10.981152	-4.212418
